<?xml version="1.0" encoding="UTF-8"?>
<svg id="Capa_2" data-name="Capa 2" xmlns="http://www.w3.org/2000/svg" viewBox="0 0 392.48 386.15">
  <defs>
    <style>
      .cls-1 {
        fill: #000;
      }

      .cls-1, .cls-2 {
        stroke-width: 0px;
      }

      .cls-3 {
        stroke-linecap: round;
        stroke-linejoin: round;
      }

      .cls-3, .cls-2, .cls-4 {
        fill: none;
      }

      .cls-3, .cls-4 {
        stroke: #000;
        stroke-width: .75px;
      }

      .cls-4 {
        stroke-miterlimit: 10;
      }
    </style>
  </defs>
  <g id="svg1">
    <path class="cls-3" d="M304.13,184.3c-3-.7-5-.62-8.03.67-1.7,1.8-3.3,4.8-7.1,8.3-7.1,6.5-3.9,24.9-5,19.9-1-5-10.2-18.6-13.1-23.6-2.9-5-5-18.1-8.6-24.1-3.7-6-7.3-9.7-17-18.1-9.7-8.4-19.1-33.5-27.8-36.1-8.7-2.6-40.6,6.5-44.5,7.9-3.9,1.3-11.5-.8-28,2.6-16.5,3.4-15.2,13.3-28,29.8-12.38,15.91-6.52,37.23-6.12,38.64.01.02.01.03.01.03,0,.01,0,.02,0,.03.34.88,4.21,11.35,4.5,21.3.4,10.4-2.4,27.4-1.1,36.1s6.3,22,8,28c1.7,5.9,11.18,33.22,17.28,39.52,3.95,4.08,16.44,15.97,27.27,24.58h0s.13.77.13.77l.46,2.25.26,1.26,8.35,40.31c7.65.93,15.45,1.41,23.35,1.41,10.18,0,20.17-.79,29.92-2.31,0,0,50.96-49.98,66.14-72.77h0s-.47-9.12-.47-9.12l-2.52-48.77c3.44.45,8.66,0,11.55-2.72,2.89-2.72,7.79-11.31,8.06-18.89.25-7.09,4.68-20.18,4.68-26.18s-6.13-19.11-12.63-20.71ZM146.6,218.27c-3.1,0-5.7-2.3-5.7-5.2,0-.9.3-1.8.7-2.5,3-.8,6.1-1.2,8.8-1.3,1.1.9,1.9,2.3,1.9,3.8,0,2.8-2.6,5.2-5.7,5.2ZM131,190.38c-6.8,1.7-14.8,11.7-14.8,11.7,0,0,2-13.1,6.5-15.5,4.4-2.4,23.7-3.1,27.8-1.3,4.1,1.8,7.3,5.8,7.3,5.8,0,0-20-2.4-26.8-.7ZM223.4,204.77c-3.1,0-5.6-2.2-5.6-4.9,0-1.2.5-2.3,1.3-3.1,1.4-.3,1.8-.3,4.3-.3,1.2,0,2.8.3,4.5.5.7.8,1.1,1.8,1.1,2.9,0,2.7-2.5,4.9-5.6,4.9ZM230.2,172.07c-10.5-2.1-36.8,15.5-36.8,15.5,0,0-2.8-5-.8-8,2-2.9,30.1-14.9,36.8-15.5,6.7-.6,20.4,13.7,20.4,13.7,0,0-9-3.7-19.6-5.7Z"/>
    <line class="cls-3" x1="176.05" y1="384.38" x2="176.05" y2="384.37"/>
    <line class="cls-2" x1="11.3" y1="130.48" y2="129.18"/>
    <path class="cls-3" d="M308.26,321.76c.51-2.18.74-3.83.76-5.09.05-1.88-.34-2.87-.84-3.37l23.15,20.23c-15.07,14.16-32.42,25.92-51.45,34.68,0,0,25.83-35.62,28.38-46.45Z"/>
    <path class="cls-3" d="M173.79,384.08c-6.89-.91-13.67-2.19-20.31-3.82,0,0,4.99-27.29,9.15-32.46,3.7-4.58,4.81-5.01,4.81-5.01l.26,1.26s-1.65,0-3.34,5.92c-1.74,6.07,9.43,34.11,9.43,34.11Z"/>
    <path class="cls-3" d="M176.05,384.37c-.75-.08-1.51-.18-2.26-.28,0,0-11.17-28.04-9.43-34.11,1.69-5.92,3.34-5.92,3.34-5.92l8.35,40.31Z"/>
    <path class="cls-3" d="M309.02,316.68c-.02,1.26-.25,2.91-.76,5.09-2.55,10.83-28.38,46.45-28.38,46.45-15.73,7.24-32.61,12.43-50.28,15.2h-.01c-.09.02-.18.04-.27.05,0,0,50.96-49.98,66.14-72.77h0c1.17-1.78,2.13-3.38,2.84-4.78.65-1.29.62-2.2.27-2.83l7.71,9.9,2.74,3.69Z"/>
    <path class="cls-1" d="M199.4,0C92.94,0,6.32,86.61,6.32,193.08c0,44.11,14.48,85.64,41.87,120.09,26.58,33.43,63.94,57.39,105.19,67.47.03,0,.06.01.09.01.07,0,.14-.02.2-.06.09-.06.15-.15.17-.25.05-.27,5.02-27.25,9.07-32.29,3.5-4.33,4.62-4.88,4.65-4.9.17-.07.27-.25.23-.42l-.46-2.24-.12-.71c0-.11-.05-.22-.14-.29-10.64-8.46-22.99-20.16-27.23-24.55-6.16-6.36-15.62-33.93-17.19-39.36-.5-1.76-1.27-4.13-2.17-6.86-2.19-6.67-4.91-14.97-5.82-21.09-.73-4.85-.15-12.46.4-19.82.43-5.73.88-11.66.7-16.23-.3-10.25-4.38-21.03-4.52-21.42,0,0,0-.02,0-.02,0-.01,0-.03-.01-.04-2.7-7.38-10.08-29.54-8.58-34.4.97-3.01.3-6.93-.41-11.07-.72-4.23-1.47-8.61-.68-12.67.78-3.91,2.6-5.7,4.07-7.14,1.31-1.28,2.44-2.39,2.24-4.47-.09-.98-.37-2.09-.69-3.38-1.02-4.15-2.42-9.82,1.04-16.31l1-1.87q4.64-8.67,7.19-9.4c.5-.14,1.08-.31,1.8-.56,2.15-.76,2.41-1.02,2.57-1.82.13-.6.36-1.73,4.53-4.93,3.25-2.46,4.92-4.18,6.26-5.57,1.83-1.89,2.84-2.93,6.33-4.08,4.44-1.48,8.22-4.3,11.25-6.57,1.09-.82,2.12-1.59,3.04-2.18.78-.52.97-.54,1.02-.53.57.23.91.37,10.3-7.29,7.65-6.18,14.39-5.39,18.85-4.86,1.54.18,2.77.33,3.69.14,3.2-.68,25.46,1.68,25.68,1.71.06,0,.12,0,.18-.02.05-.02,5.51-2.09,15.23,1.5,2.19.81,4.09,1.49,5.79,2.09,6.16,2.19,9.55,3.39,14.43,6.57,2.5,1.63,4.6,2.37,6.64,3.09,3.14,1.11,6.1,2.16,10.3,6.36,2.44,2.44,3.96,3.91,5.01,4.93,1.98,1.91,2.28,2.21,3.96,4.34,1.02,1.29,1.79,1.74,2.41,2.09.99.57,1.7.99,3.04,4.8,1.08,3.14,1.39,3.47,1.9,3.82.36.25.9.62,2.81,5.21,1.99,4.78,3.23,6.65,4.14,8.02.79,1.2,1.37,2.06,2.05,4.25.6,1.93.42,3.22.23,4.47-.26,1.78-.5,3.46,1.62,6.43,2.2,3.03,2.19,3.05,1.83,4.42-.23.88-.62,2.36-.7,5.35-.1,3.78-.45,4.45-.76,5.04-.34.65-.64,1.22-.64,4.37,0,2.29-.09,4.26-.18,6-.15,3.14-.27,5.62.18,8.46.11.69.15,1.09.16,1.33-.04,0-.08.02-.11.04q-.29.18.67,3.1l.16.45c1.78,5.14,2.85,8.24,3.52,16.45.23,4.08.26,7.07.1,9.15,0,.13.05.26.16.33.11.08.25.09.37.04,2.84-1.21,4.73-1.37,7.79-.65,6.12,1.51,12.34,14.14,12.34,20.35,0,2.96-1.09,7.63-2.24,12.59-1.14,4.91-2.32,9.99-2.45,13.58-.27,7.68-5.24,16.09-7.94,18.63-2.64,2.48-7.55,3.11-11.24,2.62-.11-.01-.22.02-.3.1-.08.08-.12.18-.12.29l2.52,48.77c0,.2.17.36.37.36.02,0,2.12.01,3.05,1.04.06.06.12.13.18.24,0,.01.05.07.05.09l7.71,9.9c.1.13.28.18.44.12.14-.06.87-.31,1.44.19,0,0,.07.06.07.06l23.15,20.23c.15.13.36.12.5,0,19.02-17.87,33.99-38.99,44.5-62.77,10.88-24.61,16.39-50.84,16.39-77.97C392.48,86.61,305.86,0,199.4,0ZM331.32,333.03l-22.96-20.06c-.69-.62-1.51-.53-1.94-.42l-7.55-9.7c-.1-.17-.2-.3-.3-.38-.88-.97-2.5-1.2-3.22-1.25l-2.48-47.99c3.81.4,8.7-.32,11.41-2.87,2.78-2.62,7.9-11.26,8.18-19.15.12-3.51,1.29-8.56,2.43-13.43,1.16-5,2.25-9.72,2.25-12.76,0-5.89-5.98-19.37-12.92-21.08-3-.7-5.02-.59-7.7.46.12-2.07.07-4.91-.14-8.66-.68-8.31-1.77-11.45-3.56-16.64l-.15-.44c-.34-1.05-.57-1.74-.69-2.14.22-.18.27-.58,0-2.2-.44-2.76-.32-5.2-.17-8.3.08-1.75.18-3.73.18-6.04,0-2.96.27-3.48.55-4.02.35-.67.74-1.42.85-5.37.07-2.9.44-4.27.68-5.18.44-1.67.37-1.86-1.95-5.05-1.94-2.72-1.73-4.19-1.49-5.89.18-1.27.39-2.71-.26-4.81-.72-2.29-1.31-3.19-2.14-4.44-.94-1.42-2.11-3.18-4.07-7.89-1.99-4.79-2.57-5.19-3.08-5.54-.3-.21-.57-.39-1.62-3.44-1.42-4.07-2.28-4.57-3.37-5.2-.59-.34-1.26-.73-2.19-1.91-1.71-2.17-2.06-2.51-4.03-4.41-1.05-1.02-2.56-2.48-5-4.92-4.32-4.32-7.36-5.4-10.58-6.54-1.99-.7-4.05-1.43-6.48-3.01-4.96-3.23-8.58-4.52-14.59-6.65-1.7-.6-3.6-1.28-5.78-2.09-9.45-3.5-14.9-1.81-15.68-1.53-1.76-.19-22.58-2.38-25.83-1.69-.8.17-1.97.03-3.45-.15-4.59-.54-11.52-1.35-19.42,5.02-3.78,3.08-8.88,7.18-9.55,7.18,0,0,0,0,0,0-.36-.15-.68-.09-1.71.6-.93.6-1.97,1.38-3.07,2.2-2.99,2.23-6.72,5.02-11.04,6.46-3.66,1.2-4.78,2.35-6.63,4.27-1.32,1.36-2.97,3.06-6.18,5.49-4.39,3.37-4.65,4.63-4.81,5.37-.09.42-.12.57-2.09,1.27-.7.24-1.28.41-1.76.54-2.86.81-2.95.98-7.65,9.77l-1,1.87c-3.6,6.73-2.16,12.57-1.11,16.84.31,1.26.58,2.35.67,3.27.17,1.72-.75,2.62-2.01,3.86-1.54,1.51-3.45,3.39-4.28,7.53-.82,4.2-.06,8.65.68,12.95.69,4.05,1.35,7.87.43,10.71-1.83,5.91,8.07,33.46,8.58,34.86,0,.02,0,.03.02.05,0,.01,0,.02.01.03.04.11,4.18,10.92,4.47,21.18.17,4.53-.27,10.44-.7,16.15-.56,7.4-1.13,15.06-.4,19.99.92,6.18,3.65,14.52,5.85,21.21.89,2.73,1.67,5.08,2.16,6.84,1.57,5.46,11.11,33.22,17.37,39.68,4.24,4.38,16.55,16.05,27.19,24.52l.52,2.63c-.54.37-1.89,1.5-4.68,4.96-3.95,4.91-8.5,28.74-9.16,32.24C67.13,358.6,7.07,281.87,7.07,193.08,7.07,87.03,93.35.75,199.4.75s192.33,86.28,192.33,192.33c0,53.54-21.45,103.23-60.41,139.95Z"/>
    <path class="cls-4" d="M298.3,305.92c-.71,1.4-1.67,3-2.84,4.77l-.47-9.11c.06,0,2.28.01,3.3,1.14l.25.32.03.05c.35.63.38,1.54-.27,2.83Z"/>
    <line class="cls-3" x1="309.03" y1="316.69" x2="309.02" y2="316.68"/>
    <path class="cls-3" d="M309.02,316.68l-2.74-3.69c.2-.08,1.11-.38,1.83.26l.07.06c.5.5.89,1.49.84,3.37Z"/>
    <path class="cls-3" d="M306.28,312.99s-.04.01-.04.01"/>
    <g>
      <path class="cls-1" d="M161.91,212.8c.06.04.12.05.19.05.13,0,.25-.07.32-.19.1-.18.05-.41-.13-.51-.19-.11-4.71-2.75-8.25-3.15-1.01-.1-2.33-.2-3.67-.1,0,0,0,0,0,0-2.1.08-5.33.37-8.86,1.31h0s0,0,0,0c0,0,0,0,0,0,0,0,0,0,0,0-.48.12-.97.28-1.43.43-.3.1-.6.19-.9.28-5.92,2.06-9.43,5.99-11.31,8.09-.24.27-.45.51-.64.7-.14.15-.13.39.02.53.07.07.16.1.26.1.1,0,.2-.04.27-.12.19-.2.41-.44.65-.72,1.84-2.06,5.26-5.89,10.98-7.88.29-.08.59-.18.9-.28.19-.06.4-.12.6-.18-.24.63-.38,1.28-.38,1.9,0,3.07,2.73,5.57,6.07,5.57s6.08-2.55,6.08-5.57c0-1.24-.51-2.48-1.39-3.46.98-.01,1.92.06,2.67.13,3.38.39,7.91,3.02,7.95,3.05Z"/>
      <path class="cls-1" d="M243.8,200.35c.17,0,.33-.12.37-.3.04-.2-.08-.4-.29-.45-.09-.02-9.29-2.01-15.92-3,0,0,0,0,0,0,0,0,0,0,0,0-.54-.06-1.06-.14-1.57-.21-1.1-.15-2.13-.3-2.98-.3-2.48,0-2.94,0-4.37.31-10.21,1.01-15.49,6.77-15.71,7.02-.14.15-.13.39.03.53.07.06.16.1.25.1.1,0,.2-.04.28-.12.05-.06,5.02-5.43,14.34-6.66-.51.77-.79,1.67-.79,2.61,0,2.91,2.68,5.27,5.97,5.27s5.98-2.37,5.98-5.27c0-.86-.23-1.67-.65-2.39,6.52,1.02,14.91,2.84,15,2.86.03,0,.05,0,.08,0Z"/>
      <path class="cls-1" d="M167.28,260.37c-.48.35-.57.75-.56,1.03.05,1.08,1.7,2.09,1.89,2.2.18.1.41.05.51-.13.11-.18.05-.41-.13-.51-.62-.37-1.5-1.1-1.52-1.59,0-.06,0-.2.25-.39,1.37-.98,4.25-1.43,5.82.07.42.4.87.87,1.34,1.35,1.56,1.62,3.34,3.45,5.13,3.94,1.12.27,3.18.68,5.26.68,1.55,0,3.12-.23,4.31-.92,1.68-.97,2.19-2.18,2.69-3.36.31-.75.61-1.45,1.2-2.11.15-.16.3-.32.46-.5,1.73-1.89,4.1-4.47,8.19-3.69,2.92.58,3.9,1.98,3.9,2.53,0,.83,0,1.49-2.49,1.93-.2.04-.34.23-.3.44.04.2.23.34.44.3,2.88-.51,3.11-1.51,3.11-2.67,0-.92-1.22-2.61-4.5-3.27-4.5-.86-7.14,2.02-8.89,3.92-.16.17-.31.34-.46.5-.67.76-1.01,1.55-1.33,2.32-.47,1.11-.91,2.16-2.37,3-2.63,1.52-7.57.51-9.01.16-1.58-.43-3.28-2.19-4.77-3.73-.48-.5-.94-.97-1.37-1.38-1.93-1.82-5.23-1.24-6.77-.13Z"/>
      <path class="cls-1" d="M183.35,293.25c4.33.6,6.82.6,9.45.6,1.34,0,2.26-.47,3.42-1.07,1.25-.64,2.79-1.43,5.56-2.04,1.95-.47,5.61-.76,9.48-1.07,6.95-.56,14.83-1.19,17.45-3.09.17-.12.21-.36.08-.52-.12-.17-.36-.21-.52-.08-2.45,1.77-10.55,2.42-17.07,2.95-4.07.33-7.59.61-9.59,1.09-2.86.63-4.45,1.45-5.74,2.11-1.12.57-1.93.98-3.08.98-2.61,0-5.07,0-9.36-.6-1.69-.2-4.28.55-7.57,1.5-5.06,1.47-11.35,3.29-16.8,2.2-.2-.04-.4.09-.44.29-.04.2.09.4.29.44,1.21.24,2.46.35,3.72.35,4.6,0,9.41-1.39,13.44-2.56,3.08-.89,5.73-1.66,7.26-1.48Z"/>
      <path class="cls-1" d="M288.01,253c-.24-.03-.38.16-.38.36-.01.4-1.13,40.29-3.47,45.76-1.71,3.93-11,10.83-17.15,15.4-2.35,1.75-4.39,3.26-5.56,4.27-1.92,1.69-6.01,5.65-10.33,9.85-5.1,4.94-10.88,10.54-13.87,13.15-4.87,4.25-14.92,7.62-30.72,10.31-10.81,1.84-14.31.54-19.62-1.43-1.55-.57-3.3-1.22-5.41-1.86-2.9-.88-7.76-4.02-14.43-9.32-.16-.13-.4-.1-.53.06-.13.16-.1.4.06.53,6.74,5.37,11.68,8.55,14.68,9.46,2.09.63,3.83,1.28,5.37,1.85,3.59,1.33,6.37,2.36,11.04,2.36,2.38,0,5.25-.27,8.96-.9,16.16-2.75,26.04-6.08,31.08-10.49,3-2.62,8.79-8.23,13.9-13.18,4.32-4.19,8.4-8.14,10.3-9.82,1.15-.99,3.17-2.49,5.51-4.23,6.58-4.89,15.59-11.59,17.39-15.7,2.4-5.6,3.49-44.39,3.53-46.04,0-.21-.16-.38-.37-.39Z"/>
      <path class="cls-1" d="M141.3,204.94c11.34-3.1,17.58,2.85,17.64,2.91.15.14.38.14.53,0,.15-.15.14-.38,0-.53-.06-.06-6.59-6.31-18.42-3.07-10.58,4.89-14.6,11.47-14.76,11.75-.11.18-.05.41.13.51.06.04.13.05.19.05.13,0,.25-.07.32-.18.04-.07,4.08-6.66,14.38-11.43Z"/>
      <path class="cls-1" d="M203.8,200.19c.04-.06,4.57-6.29,10.16-7.25,6.83-1.22,11.75-1.92,17.66-.7,5.92,1.16,10.47,5.27,10.52,5.31.15.14.39.13.53-.02.14-.15.13-.39-.02-.53-.19-.17-4.75-4.28-10.88-5.49-6.04-1.25-11.02-.53-17.94.7-5.88,1.01-10.45,7.28-10.64,7.55-.12.17-.08.4.09.52.07.05.14.07.22.07.12,0,.23-.05.31-.16Z"/>
      <path class="cls-1" d="M205.01,301.56c-.12-.17-.35-.21-.52-.1-5.24,3.59-19.43,3.24-19.58,3.23-.22,0-.38.16-.39.36,0,.21.16.38.36.39.1,0,.59.01,1.37.01,3.76,0,14.14-.29,18.65-3.38.17-.12.21-.35.1-.52Z"/>
      <path class="cls-1" d="M191,321.55c.1,0,.19-.04.27-.11.05-.05,4.85-4.7,17.74-1.5.21.05.4-.07.45-.27.05-.2-.07-.4-.27-.45-13.35-3.31-18.26,1.5-18.46,1.7-.14.15-.14.38,0,.53.07.07.17.11.26.11Z"/>
      <path class="cls-1" d="M174.81,248.54s.06.01.09.01c.17,0,.32-.11.36-.29,1.86-7.53,3.53-31.91,2.84-32.54-.1-.09-.25-.13-.38-.08-.23.08-.27.3-.29.47-.02.11.02.2.08.27.06,2.78-.93,23.44-2.98,31.7-.05.2.07.4.27.45Z"/>
      <path class="cls-1" d="M157.76,191.45c.15.01.3-.06.37-.19.07-.13.06-.3-.03-.42-.13-.17-3.31-4.09-7.44-5.91-4.03-1.77-23.5-1.21-28.13,1.31-4.61,2.46-6.61,15.23-6.69,15.77-.03.17.06.33.22.4.05.02.1.03.15.03.11,0,.22-.05.29-.14.08-.1,8-9.92,14.6-11.57,6.66-1.66,26.47.68,26.66.71Z"/>
      <path class="cls-1" d="M250.11,177.99c.1-.15.08-.34-.04-.47-.55-.58-13.33-13.83-20.26-13.83-.15,0-.3,0-.45.02-6.54.59-34.96,12.59-37.08,15.67-2.1,3.15.67,8.18.79,8.39.05.09.14.16.24.18.03,0,.06.01.09.01.07,0,.15-.02.21-.06.26-.17,26.29-17.5,36.52-15.44,10.44,1.97,19.44,5.64,19.53,5.68.16.07.35.01.45-.14Z"/>
      <path class="cls-1" d="M296.37,185.23c.06-.06.09-.14.1-.23.02-.26.04-.54.05-.83.03-.58.04-1.23.05-1.93.01-1.76-.06-3.91-.2-6.5-.69-8.32-1.77-11.45-3.57-16.65l-.15-.43c-.34-1.05-.57-1.74-.69-2.14.22-.18.27-.58,0-2.2-.44-2.76-.32-5.2-.17-8.3.08-1.75.18-3.73.18-6.04,0-2.96.27-3.48.55-4.02.35-.67.74-1.42.85-5.37.07-2.9.44-4.27.68-5.18.44-1.67.37-1.86-1.95-5.05-1.94-2.72-1.73-4.19-1.49-5.89.18-1.27.39-2.71-.26-4.81-.72-2.29-1.31-3.19-2.14-4.44-.94-1.42-2.11-3.18-4.07-7.89-1.99-4.79-2.57-5.19-3.08-5.54-.3-.21-.57-.39-1.62-3.44-1.42-4.07-2.28-4.57-3.37-5.2-.59-.34-1.26-.73-2.19-1.91-1.71-2.17-2.06-2.51-4.03-4.41-1.05-1.02-2.57-2.48-5-4.92-4.32-4.32-7.36-5.4-10.58-6.54-1.99-.7-4.05-1.43-6.48-3.01-4.96-3.23-8.58-4.51-14.59-6.65-1.7-.6-3.6-1.28-5.79-2.09-9.45-3.5-14.89-1.81-15.68-1.53-1.76-.19-22.58-2.37-25.83-1.69-.8.16-1.97.03-3.45-.15-4.59-.54-11.52-1.36-19.41,5.02-3.79,3.09-8.91,7.19-9.55,7.18-.36-.15-.68-.09-1.71.6-.93.6-1.97,1.38-3.08,2.2-2.99,2.23-6.72,5.01-11.04,6.46-3.66,1.2-4.78,2.35-6.63,4.27-1.32,1.36-2.97,3.06-6.18,5.49-4.39,3.37-4.65,4.63-4.81,5.37-.09.42-.12.57-2.09,1.27-.7.24-1.28.41-1.76.54-2.86.81-2.95.98-7.65,9.77l-1,1.86c-3.6,6.74-2.16,12.58-1.11,16.84.31,1.26.58,2.35.67,3.27.17,1.72-.75,2.62-2.02,3.86-1.54,1.51-3.45,3.39-4.28,7.53-.82,4.2-.06,8.65.68,12.95.69,4.05,1.35,7.87.43,10.71-1.79,5.78,7.69,32.38,8.52,34.7-.02.05-.04.1-.04.16v.04c0,.21.17.35.38.35.16,0,.29-.11.35-.26.09-.09.13-.23.09-.36-.65-2.29-6-22.82,6.06-38.31,4.16-5.37,6.79-9.96,9.11-14.01,4.79-8.35,7.68-13.39,18.66-15.66,10.16-2.09,17.01-2.09,21.54-2.09,2.88,0,4.95,0,6.51-.52,4.4-1.58,35.77-10.44,44.27-7.89,4.68,1.4,9.6,9.56,14.82,18.2,4.17,6.9,8.47,14.04,12.85,17.83,10.03,8.69,13.36,12.22,16.92,18.01,1.89,3.14,3.35,8.26,4.77,13.2,1.26,4.38,2.44,8.51,3.83,10.9.72,1.24,1.81,2.98,3.08,5.01,3.9,6.24,9.24,14.77,9.98,18.48.19.85.25,1.15.57,1.15.02,0,.05,0,.08,0,.38-.05.38-.19.33-1.52-.11-3.63-.46-14.66,4.64-19.32,2.48-2.29,4.03-4.36,5.28-6.02.67-.9,1.25-1.67,1.84-2.3Z"/>
      <path class="cls-1" d="M313.77,201.81c-.18-.6-4.57-14.67-12-12.81-8.27,2.06-8.55,29.59-8.56,30.76,0,.14.08.28.21.34.13.06.29.05.4-.05,0,0,.94-.73,1.52-.4.33.19,1.03,1.03.49,4.88-.03.21.11.4.32.42.02,0,.04,0,.05,0,.18,0,.34-.14.37-.32.45-3.21.17-5.05-.86-5.63-.59-.34-1.26-.15-1.74.08.1-4.31.95-27.61,7.98-29.36,6.74-1.68,11.06,12.16,11.11,12.3.06.2.27.31.47.25.2-.06.31-.27.25-.47Z"/>
    </g>
  </g>
</svg>